<?xml version="1.0" standalone="no"?>
<!DOCTYPE svg PUBLIC "-//W3C//DTD SVG 20010904//EN"
 "http://www.w3.org/TR/2001/REC-SVG-20010904/DTD/svg10.dtd">
<svg version="1.0" xmlns="http://www.w3.org/2000/svg"
 width="1376.000000pt" height="1376.000000pt" viewBox="0 0 1376.000000 1376.000000"
 preserveAspectRatio="xMidYMid meet">
<metadata>
Created by potrace 1.14, written by Peter Selinger 2001-2017
</metadata>
<g transform="translate(0.000000,1376.000000) scale(0.100000,-0.100000)"
fill="#000000" stroke="none">
<path d="M6718 11235 c-2 -1 -53 -5 -114 -9 -61 -4 -121 -8 -135 -10 -13 -3
-46 -7 -72 -11 -27 -4 -57 -8 -67 -10 -9 -2 -33 -6 -51 -9 -226 -36 -513 -119
-739 -213 -121 -50 -373 -176 -455 -228 -38 -24 -92 -57 -120 -74 -61 -36
-290 -207 -371 -276 -64 -55 -299 -287 -356 -351 -40 -46 -154 -187 -181 -224
-9 -14 -36 -52 -60 -85 -294 -412 -514 -957 -592 -1465 -4 -25 -9 -52 -10 -60
-2 -9 -6 -47 -10 -85 -4 -39 -10 -83 -12 -100 -2 -16 -6 -509 -8 -1095 -3
-847 -6 -1064 -16 -1062 -7 2 -25 12 -40 23 -15 10 -30 19 -34 19 -4 0 -55 32
-113 71 -318 213 -587 491 -756 780 -122 208 -218 482 -260 744 -38 232 -36
542 4 775 5 30 12 73 15 95 4 22 8 48 11 57 3 9 7 26 9 38 26 133 102 374 166
523 l38 87 -22 14 c-12 8 -56 34 -97 59 -41 24 -241 144 -445 267 -203 123
-381 229 -394 236 -23 12 -26 11 -44 -19 -103 -169 -262 -554 -313 -761 -73
-290 -99 -497 -99 -776 0 -156 8 -308 19 -365 2 -11 7 -42 10 -70 7 -54 33
-184 41 -206 2 -8 6 -26 9 -40 34 -203 197 -610 346 -864 220 -373 543 -739
869 -985 18 -14 45 -34 59 -46 39 -30 245 -163 328 -212 62 -36 193 -100 326
-160 46 -21 246 -92 314 -112 23 -7 47 -16 54 -20 10 -6 13 -270 13 -1252 l0
-1245 3517 0 3517 0 -1 1252 c-1 829 2 1252 9 1252 25 0 233 71 350 121 308
129 633 330 870 536 470 411 809 906 998 1456 34 100 73 236 83 290 2 14 7 31
10 39 2 8 7 30 10 50 3 20 9 54 14 76 5 22 12 67 15 100 4 33 9 62 10 65 2 3
7 52 11 110 13 173 8 477 -10 590 -3 14 -12 72 -21 130 -26 162 -104 461 -145
555 -5 11 -21 52 -36 90 -36 96 -58 143 -119 265 -72 144 -88 171 -100 166 -5
-2 -118 -70 -250 -149 -132 -80 -303 -183 -379 -229 -76 -46 -154 -92 -172
-103 -18 -11 -64 -39 -103 -63 l-70 -42 35 -82 c86 -202 162 -472 199 -713 6
-35 16 -118 24 -192 7 -72 6 -401 -3 -458 -2 -16 -7 -57 -11 -90 -3 -33 -9
-68 -11 -77 -3 -10 -7 -30 -10 -45 -3 -16 -6 -37 -8 -48 -21 -114 -104 -350
-174 -490 -47 -93 -164 -284 -197 -321 -5 -6 -23 -29 -40 -50 -93 -119 -174
-203 -315 -324 -141 -121 -337 -261 -445 -318 -20 -10 -20 -7 -20 1016 0 913
-4 1115 -20 1227 -2 17 -7 48 -9 70 -41 364 -178 797 -362 1153 -79 152 -209
362 -281 453 -15 20 -35 47 -43 59 -8 12 -19 28 -25 34 -5 6 -44 52 -85 101
-106 129 -336 357 -465 461 -382 308 -844 545 -1315 673 -90 25 -353 77 -430
86 -30 3 -67 8 -81 11 -76 12 -550 28 -561 19z"/>
</g>
</svg>
